<?xml version="1.0" standalone="no"?>
<!DOCTYPE svg PUBLIC "-//W3C//DTD SVG 20010904//EN"
 "http://www.w3.org/TR/2001/REC-SVG-20010904/DTD/svg10.dtd">
<svg version="1.0" xmlns="http://www.w3.org/2000/svg"
 width="1000.000000pt" height="1000.000000pt" viewBox="0 0 1000.000000 1000.000000"
 preserveAspectRatio="xMidYMid meet">
<metadata>
Created by potrace 1.11, written by Peter Selinger 2001-2013
</metadata>
<g transform="translate(0.000000,1000.000000) scale(0.100000,-0.100000)"
fill="#000000" stroke="none">
<path d="M4666 9989 c-775 -50 -1568 -298 -2238 -702 -1794 -1081 -2721 -3139
-2343 -5202 255 -1393 1117 -2635 2338 -3369 1585 -953 3569 -953 5154 0 1260
757 2118 2026 2358 3484 32 196 31 247 -1 75 -126 -669 -411 -1280 -846 -1817
-126 -155 -415 -442 -576 -570 -619 -494 -1326 -784 -2122 -870 -176 -19 -642
-16 -825 6 -485 57 -919 184 -1337 391 -403 200 -728 435 -1054 760 -584 583
-959 1295 -1109 2108 -32 175 -32 219 1 67 174 -827 662 -1547 1364 -2015 786
-524 1763 -671 2674 -405 1037 303 1863 1129 2166 2167 80 272 118 517 127
808 23 766 -221 1496 -703 2100 -112 141 -348 376 -489 489 -937 749 -2197
916 -3292 436 -683 -300 -1258 -850 -1583 -1515 -122 -251 -209 -500 -264
-765 -33 -152 -33 -108 -1 67 123 665 394 1257 823 1795 136 171 429 464 600
600 611 487 1297 773 2077 864 183 22 649 25 825 6 796 -86 1503 -376 2122
-870 161 -128 450 -415 576 -570 435 -537 720 -1148 846 -1817 32 -172 33
-121 1 75 -202 1228 -837 2319 -1801 3093 -984 791 -2204 1176 -3468 1096z
m-2629 -4496 c-3 -10 -5 -4 -5 12 0 17 2 24 5 18 2 -7 2 -21 0 -30z m-10 -75
c-3 -7 -5 -2 -5 12 0 14 2 19 5 13 2 -7 2 -19 0 -25z m0 -860 c-3 -7 -5 -2 -5
12 0 14 2 19 5 13 2 -7 2 -19 0 -25z m10 -75 c-3 -10 -5 -4 -5 12 0 17 2 24 5
18 2 -7 2 -21 0 -30z"/>
<path d="M9962 5560 c0 -19 2 -27 5 -17 2 9 2 25 0 35 -3 9 -5 1 -5 -18z"/>
<path d="M9972 5470 c0 -19 2 -27 5 -17 2 9 2 25 0 35 -3 9 -5 1 -5 -18z"/>
<path d="M9972 4530 c0 -19 2 -27 5 -17 2 9 2 25 0 35 -3 9 -5 1 -5 -18z"/>
<path d="M9962 4440 c0 -19 2 -27 5 -17 2 9 2 25 0 35 -3 9 -5 1 -5 -18z"/>
</g>
</svg>
